<?xml version="1.0" standalone="no"?>
<!DOCTYPE svg PUBLIC "-//W3C//DTD SVG 20010904//EN"
        "http://www.w3.org/TR/2001/REC-SVG-20010904/DTD/svg10.dtd">
<svg version="1.0" xmlns="http://www.w3.org/2000/svg"
     width="16.000000pt" height="16.000000pt" viewBox="0 0 16.000000 16.000000"
     preserveAspectRatio="xMidYMid meet">
    <metadata>
        Created by potrace 1.11, written by Peter Selinger 2001-2013
    </metadata>
    <g transform="translate(0.000000,16.000000) scale(0.003125,-0.003125)"
       fill="#000000" stroke="none">
        <path d="M567 4444 c34 -91 111 -194 257 -339 182 -182 335 -297 549 -416 69
-38 96 -58 93 -69 -3 -8 -14 -40 -25 -71 -21 -58 -26 -82 -36 -164 -3 -27 -12
-84 -20 -125 -24 -126 -25 -132 -31 -236 -7 -114 2 -156 51 -255 28 -57 32
-75 30 -130 -1 -36 -5 -73 -8 -84 -4 -11 -9 -36 -12 -55 -3 -19 -8 -42 -10
-50 -5 -17 -12 -100 -20 -245 -7 -109 -9 -126 -30 -230 -8 -38 -17 -85 -20
-104 -3 -19 -8 -37 -10 -41 -2 -3 -11 -46 -19 -95 -9 -50 -18 -101 -21 -115
-38 -192 -40 -280 -8 -390 28 -97 81 -204 123 -246 29 -31 55 -46 103 -64 l28
-10 -22 -33 c-13 -17 -26 -34 -29 -37 -13 -12 -6 -56 9 -57 76 -7 169 -6 168
1 -1 5 4 11 11 13 8 3 10 -1 5 -13 -4 -12 -3 -15 5 -10 7 4 12 16 12 27 0 19
1 19 16 5 18 -18 34 -21 34 -5 0 5 -4 8 -9 4 -20 -12 -19 12 0 29 20 17 21 16
15 -1 -3 -10 -1 -25 5 -33 9 -13 10 -12 5 2 -3 10 -1 20 5 23 5 4 6 12 3 18
-5 8 -3 8 7 0 18 -17 34 -17 20 0 -6 8 -7 18 -3 22 4 5 -2 5 -13 1 -16 -6 -18
-5 -7 5 6 7 12 23 12 35 0 17 9 25 38 35 20 7 51 20 67 29 35 20 86 37 135 46
51 9 203 6 231 -4 13 -5 28 -10 32 -10 7 0 131 -45 172 -62 11 -4 28 -11 38
-14 14 -5 18 -16 17 -51 -1 -9 25 -33 30 -30 3 2 7 -6 7 -17 1 -11 -1 -18 -4
-14 -3 3 -13 1 -23 -4 -12 -6 -17 -5 -17 5 0 7 6 11 14 8 7 -3 13 -1 13 5 0 6
-8 9 -17 7 -10 -2 -18 -4 -18 -5 0 -7 -36 -6 -41 1 -3 5 -9 7 -14 4 -5 -3 -11
-1 -15 4 -3 6 3 8 15 6 11 -2 22 1 26 6 3 5 15 7 27 4 21 -6 21 -5 4 9 -10 8
-17 16 -15 19 2 3 -1 9 -6 14 -5 4 -7 3 -3 -2 3 -6 2 -17 -3 -25 -7 -12 -11
-9 -19 10 -9 20 -11 21 -10 5 2 -35 0 -36 -23 -15 -15 14 -24 16 -29 9 -4 -6
-12 -9 -18 -5 -7 5 -8 1 -4 -10 6 -16 3 -15 -23 3 l-29 21 -29 -21 -28 -20 6
24 c3 13 3 18 0 12 -3 -7 -10 -13 -15 -13 -6 0 -8 4 -5 8 3 5 -1 9 -9 9 -10 0
-12 -4 -5 -12 6 -8 5 -18 -6 -31 -15 -19 -15 -19 -9 2 3 11 -1 28 -8 38 -12
16 -14 16 -14 2 0 -9 4 -16 9 -16 4 0 8 -4 8 -8 0 -5 -7 -9 -15 -9 -8 0 -15 5
-15 10 0 5 -7 7 -15 3 -8 -3 -22 3 -32 12 -16 16 -16 16 -10 -2 6 -15 4 -17
-10 -11 -10 3 -22 7 -28 8 -5 1 -13 7 -18 12 -4 6 -5 -2 -3 -17 3 -20 1 -25
-10 -21 -8 3 -11 10 -7 17 4 6 0 6 -9 -2 -11 -9 -18 -10 -23 -2 -3 5 -1 10 5
10 6 0 8 5 5 11 -5 6 -12 4 -20 -8 -7 -10 -11 -22 -8 -27 4 -5 1 -6 -6 -2 -7
4 -9 17 -6 29 4 12 3 18 -2 12 -4 -5 -17 -17 -27 -25 -18 -14 -18 -13 -13 10
4 14 4 19 1 13 -3 -7 -10 -13 -15 -13 -6 0 -8 4 -5 8 3 5 -1 9 -8 9 -8 0 -12
-7 -8 -15 3 -9 1 -13 -4 -9 -6 3 -16 2 -24 -3 -9 -5 -19 -5 -27 1 -16 14 -34
3 -27 -16 4 -8 11 -12 18 -8 18 12 46 14 46 4 0 -5 -8 -8 -17 -6 -10 1 -27 -5
-37 -14 -11 -9 -16 -11 -13 -4 8 12 -10 12 -30 0 -7 -5 -17 -6 -22 -3 -5 4 -7
-3 -4 -15 5 -19 7 -20 15 -4 9 15 11 15 28 0 12 -11 20 -13 25 -6 3 6 3 11 -2
11 -11 0 19 20 31 20 5 0 3 -7 -4 -16 -11 -12 -11 -15 1 -12 8 2 13 -3 12 -9
-2 -7 2 -13 8 -13 6 0 9 7 6 15 -4 8 -3 16 1 19 8 5 33 -20 26 -26 -2 -3 2 -5
10 -5 8 0 12 6 9 14 -3 7 -9 13 -15 13 -5 0 -6 5 -2 11 4 8 13 4 25 -12 10
-13 21 -20 25 -16 4 4 2 7 -4 7 -20 0 -13 16 7 17 15 1 18 -3 14 -15 -4 -13
-2 -12 10 3 15 18 16 18 17 3 0 -10 4 -18 10 -18 5 0 7 6 4 14 -3 8 -1 17 5
20 6 4 7 14 4 23 -6 15 -5 16 9 3 12 -11 13 -19 4 -32 -8 -13 -7 -21 1 -29 9
-9 10 -6 6 12 -6 24 -6 24 13 4 10 -11 16 -16 12 -11 -13 17 -9 29 5 17 8 -6
18 -7 22 -3 5 4 5 -1 2 -11 -4 -11 -3 -16 4 -12 6 4 8 14 5 22 -4 9 -1 13 6
10 7 -2 12 -10 11 -16 -2 -6 2 -11 7 -11 6 0 10 5 10 11 0 5 6 7 13 3 8 -5 8
-2 -2 9 -9 12 -10 17 -2 17 6 0 14 -7 17 -15 4 -8 10 -15 16 -15 5 0 6 5 3 10
-4 6 3 9 15 7 12 -2 26 -10 31 -18 7 -12 9 -12 10 1 1 8 0 22 -1 29 -1 12 1
13 14 2 12 -10 13 -18 5 -35 -9 -18 -7 -17 11 4 15 17 20 19 16 8 -3 -10 -1
-18 4 -18 6 0 10 7 10 15 0 8 5 15 11 15 5 0 7 -6 3 -12 -5 -10 -4 -10 7 0 11
10 17 8 32 -10 16 -20 17 -20 8 -2 -6 12 -6 26 0 35 5 7 9 12 10 9 6 -34 9
-43 15 -48 4 -4 4 1 1 11 -4 9 -2 17 3 17 6 0 10 -5 10 -11 0 -6 6 -9 13 -6 6
2 21 0 32 -5 19 -9 19 -9 1 6 -10 9 -23 13 -29 9 -6 -3 -7 -1 -3 6 4 6 4 11
-1 10 -4 -1 -15 -1 -23 0 -12 1 -13 3 -1 10 9 6 26 2 47 -11 19 -11 34 -17 34
-13 0 4 7 2 15 -5 12 -10 18 -10 30 0 12 10 16 9 21 -4 6 -16 24 -13 24 5 0 6
-4 7 -10 4 -16 -10 -11 1 7 16 9 8 14 9 10 3 -4 -7 0 -15 9 -18 10 -4 13 -2 9
7 -4 6 0 4 8 -6 8 -9 24 -17 36 -17 11 0 21 -5 21 -11 0 -5 4 -8 9 -5 4 3 33
6 63 7 31 1 66 8 79 15 13 7 18 13 12 14 -7 0 -13 7 -13 16 0 8 -13 35 -29 58
l-30 43 48 22 c79 38 168 189 190 326 20 128 -2 336 -56 519 -5 17 -1 18 58
12 169 -16 239 -19 239 -7 0 16 -45 203 -69 284 l-20 69 71 -6 c39 -4 73 -8
77 -10 3 -2 40 -7 81 -11 41 -4 77 -8 80 -10 3 -2 52 -6 110 -10 57 -4 108 -9
112 -11 26 -16 2 93 -92 421 -33 115 -60 214 -60 218 0 4 17 6 38 3 20 -3 69
-8 107 -11 39 -4 88 -8 110 -11 53 -5 158 -14 220 -19 28 -2 82 -7 120 -10
l70 -6 67 133 c152 302 287 617 288 672 0 8 -115 3 -200 -9 -19 -2 -55 -7 -80
-10 -25 -3 -56 -8 -70 -10 -61 -9 -117 -18 -135 -21 -11 -2 -36 -6 -55 -9 -19
-3 -45 -7 -56 -9 -12 -2 -39 -7 -60 -10 -22 -4 -61 -11 -89 -16 -27 -5 -66
-12 -85 -15 -120 -20 -537 -107 -615 -129 -5 -2 -31 -9 -57 -16 -33 -8 -48
-18 -48 -29 1 -41 72 -254 190 -565 39 -103 70 -190 68 -191 -2 -2 -37 -6 -78
-9 -106 -9 -158 -16 -226 -29 l-59 -12 3 -48 c2 -26 23 -119 47 -205 25 -86
45 -160 45 -164 0 -5 -20 -8 -44 -8 l-43 0 -11 58 c-13 69 -19 125 -27 257 -4
55 -15 147 -26 205 -29 152 -27 205 9 276 65 130 72 233 28 456 -15 77 -24
134 -33 208 -3 25 -16 76 -29 114 -13 39 -22 71 -21 72 2 2 32 6 67 9 201 20
491 95 624 162 133 67 336 219 336 253 0 37 -434 27 -650 -15 -19 -4 -44 -8
-55 -9 -51 -7 -460 -143 -516 -172 -24 -12 -34 -10 -105 20 -126 52 -212 69
-364 70 -136 0 -282 -29 -371 -75 -22 -11 -51 -24 -64 -29 -25 -10 -18 -15
-152 125 -15 17 -51 50 -79 75 -183 164 -247 206 -469 305 -193 86 -276 114
-356 122 -65 5 -69 4 -62 -13z m1815 -3587 c9 8 21 12 28 8 16 -10 -13 -29
-51 -34 -5 0 -8 -5 -5 -9 7 -12 -72 -8 -85 5 -6 6 -18 9 -25 6 -12 -4 -12 -8
-2 -21 11 -13 11 -14 -2 -6 -8 5 -24 9 -35 9 -11 0 -26 4 -32 8 -17 11 -35 -1
-26 -16 4 -7 0 -6 -10 2 -13 10 -20 11 -31 2 -10 -8 -16 -9 -21 -1 -3 6 -11 8
-16 5 -5 -3 -6 1 -3 9 4 12 15 14 37 10 17 -3 29 -2 25 1 -5 6 -28 12 -51 14
-5 1 -5 6 -2 11 4 6 13 7 23 1 9 -5 29 -8 44 -6 16 2 30 -1 34 -6 3 -5 10 -6
16 -3 6 4 8 2 5 -3 -4 -6 -1 -13 6 -16 17 -6 49 17 39 29 -4 4 0 3 10 -4 11
-9 18 -10 23 -2 3 6 10 8 15 5 4 -3 11 2 14 11 5 13 9 13 34 -5 26 -18 30 -19
44 -4z m-446 -8 c4 -6 10 -6 19 1 9 7 16 6 25 -5 17 -21 34 -19 25 3 -4 11 -3
14 4 7 17 -18 17 -37 -1 -40 -10 -2 -18 1 -18 6 0 6 -6 7 -12 2 -19 -11 -37
-12 -44 -2 -3 6 -11 5 -20 -2 -8 -6 -14 -8 -14 -4 0 4 -6 2 -13 -4 -10 -8 -14
-7 -14 4 0 7 5 13 11 12 6 -1 11 5 10 13 -1 18 32 24 42 9z m-115 -46 c13 -16
12 -17 -3 -4 -17 13 -22 21 -14 21 2 0 10 -8 17 -17z"/>
        <path d="M2305 851 c-4 -3 -11 -6 -16 -6 -5 0 -8 -4 -6 -10 3 -13 60 -12 64 2
4 12 -32 24 -42 14z"/>
        <path d="M2133 835 c0 -8 4 -12 9 -9 4 3 8 9 8 15 0 5 -4 9 -8 9 -5 0 -9 -7
-9 -15z"/>
        <path d="M2160 846 c0 -2 8 -10 18 -17 15 -13 16 -12 3 4 -13 16 -21 21 -21
13z"/>
        <path d="M2086 818 c3 -5 10 -6 15 -3 13 9 11 12 -6 12 -8 0 -12 -4 -9 -9z"/>
        <path d="M1906 834 c-5 -14 -4 -15 8 -5 9 7 17 8 20 2 7 -10 30 -9 34 2 5 16
1 19 -12 8 -10 -8 -16 -9 -21 -1 -9 15 -22 12 -29 -6z"/>
        <path d="M2035 901 c-3 -5 -2 -12 3 -15 5 -3 9 1 9 9 0 17 -3 19 -12 6z"/>
        <path d="M2335 901 c-3 -5 -2 -12 3 -15 5 -3 9 1 9 9 0 17 -3 19 -12 6z"/>
        <path d="M2155 890 c-3 -6 1 -7 9 -4 18 7 21 14 7 14 -6 0 -13 -4 -16 -10z"/>
        <path d="M1801 866 c-8 -10 -8 -16 3 -25 11 -10 14 -7 12 14 -1 29 0 29 -15
11z"/>
        <path d="M2466 842 c-3 -5 1 -9 9 -9 8 0 15 4 15 9 0 4 -4 8 -9 8 -6 0 -12 -4
-15 -8z"/>
        <path d="M2337 783 c-9 -8 12 -33 27 -33 6 0 3 5 -7 11 -9 6 -15 14 -12 20 7
10 2 12 -8 2z"/>
    </g>
</svg>
